<svg xmlns="http://www.w3.org/2000/svg" viewBox="0 0 114 114" fill="none">
	<path fill="#4F46E5" d="M1 9a8 8 0 0 1 8-8h96a8 8 0 0 1 8 8v96a8 8 0 0 1-8 8H9a8 8 0 0 1-8-8V9Z" />
	<path stroke="#fff" stroke-width=".7"
		d="M9 .65A8.35 8.35 0 0 0 .65 9v96A8.35 8.35 0 0 0 9 113.35h96a8.35 8.35 0 0 0 8.35-8.35V9A8.35 8.35 0 0 0 105 .65H9Z"
		data-figma-bg-blur-radius="168" opacity=".3" />
	<path stroke="#fff" stroke-linecap="round" stroke-width="2.5"
		d="M24.5 37.63 55.73 19a2.5 2.5 0 0 1 2.54-.01l9.35 5.46M24.5 37.62v36.71c0 .88.46 1.7 1.22 2.15L57 95.12m-32.5-57.5 10.3 5.94m55.33-5.94v36.7a2.5 2.5 0 0 1-1.24 2.15L57 95.13m33.13-57.5L57 56.36m33.13-18.74-11.88-6.95M57 95.12V56.38m0 0L45.08 49.5m33.17-18.82L45.08 49.5m33.17-18.82-10.63-6.22M45.09 49.5 34.8 43.56m10.3 5.94v10.9c0 .98-1.07 1.58-1.9 1.07l-7.8-4.73c-.37-.23-.6-.63-.6-1.07v-12.1m0 0 32.84-19.1M72 70.74l11.25-6.25m-10 12.5 11.88-6.88" />
	<defs>
		<clipPath id="a" transform="translate(167.7 167.7)">
			<path
				d="M9 .65A8.35 8.35 0 0 0 .65 9v96A8.35 8.35 0 0 0 9 113.35h96a8.35 8.35 0 0 0 8.35-8.35V9A8.35 8.35 0 0 0 105 .65H9Z" />
		</clipPath>
	</defs>
</svg>
