<svg xmlns="http://www.w3.org/2000/svg" xmlns:xlink="http://www.w3.org/1999/xlink" fill="none" viewBox="0 0 92 92">

	<g filter="url(#a)">
		<path fill="#4F46E5" stroke="#fff" stroke-width=".55"
			d="M82 1.72A8.28 8.28 0 0 1 90.28 10v72A8.28 8.28 0 0 1 82 90.28H10A8.28 8.28 0 0 1 1.72 82V10A8.28 8.28 0 0 1 10 1.72h72Z"
			data-figma-bg-blur-radius="132" />
		<path stroke="#fff" stroke-miterlimit="10" stroke-width="3"
			d="M46.05 70.55a24.55 24.55 0 1 0 0-49.1 24.55 24.55 0 0 0 0 49.1Z" />
		<path stroke="#fff" stroke-miterlimit="10" stroke-width="3"
			d="M46.05 37.06a4.46 4.46 0 1 0 0-8.91 4.46 4.46 0 0 0 0 8.91Zm0 26.79a4.46 4.46 0 1 0 0-8.91 4.46 4.46 0 0 0 0 8.9Z" />
		<path stroke="#fef" stroke-miterlimit="10" stroke-width="3"
			d="M46.05 63.85a4.46 4.46 0 1 0 0-8.91 4.46 4.46 0 0 0 0 8.9Zm-13.4-13.39a4.46 4.46 0 1 0 0-8.92 4.46 4.46 0 0 0 0 8.92Zm26.79 0a4.46 4.46 0 1 0 0-8.92 4.46 4.46 0 0 0 0 8.92Z" />
		<path stroke="#fff" stroke-miterlimit="10" stroke-width="3"
			d="M59.44 50.46a4.46 4.46 0 1 0 0-8.92 4.46 4.46 0 0 0 0 8.92Zm13.39 20.08H46.05M43.83 46h4.46" />
	</g>
</svg>
