<svg width="32" height="32" viewBox="0 0 32 32" fill="none" xmlns="http://www.w3.org/2000/svg">
<path fill-rule="evenodd" clip-rule="evenodd" d="M32 7.09013V24.9099C32 28.823 28.823 32 24.91 32H7.09005C3.17703 32 0 28.823 0 24.9099V7.09013C0 3.17696 3.17703 0 7.09005 0H24.91C28.823 0 32 3.17696 32 7.09013Z" fill="#4F46E5"/>
<path fill-rule="evenodd" clip-rule="evenodd" d="M32 7.09013V24.9099C32 28.823 28.823 32 24.91 32H7.09005C3.17703 32 0 28.823 0 24.9099V7.09013C0 3.17696 3.17703 0 7.09005 0H24.91C28.823 0 32 3.17696 32 7.09013Z" fill="#4F46E5"/>
<mask id="mask0_10056_36285" style="mask-type:alpha" maskUnits="userSpaceOnUse" x="0" y="0" width="32" height="32">
<path fill-rule="evenodd" clip-rule="evenodd" d="M32 7.09013V24.9099C32 28.823 28.823 32 24.91 32H7.09005C3.17703 32 0 28.823 0 24.9099V7.09013C0 3.17696 3.17703 0 7.09005 0H24.91C28.823 0 32 3.17696 32 7.09013Z" fill="#4F46E5"/>
</mask>
<g mask="url(#mask0_10056_36285)">
<path d="M13.4395 23.4536C16.0607 21.1471 19.5823 20.4829 22.333 22.0708C25.9462 24.157 26.8604 29.3381 24.375 33.6431C21.8895 37.948 16.9454 39.7468 13.332 37.6606C12.496 37.1779 11.8059 36.5281 11.2676 35.7632L10.8672 38.0347H6.3291L10.4131 14.8901H14.9512L13.4395 23.4536ZM20.0586 26.5005C18.5332 24.9753 15.8232 25.2125 14.0059 27.0298C12.1887 28.8472 11.9522 31.5572 13.4775 33.0825C15.003 34.6076 17.713 34.3705 19.5303 32.5532C21.3475 30.7358 21.5839 28.0258 20.0586 26.5005Z" fill="white"/>
</g>
<path fill-rule="evenodd" clip-rule="evenodd" d="M2.13184 4.40769C2.72328 2.62722 4.4031 1.3418 6.38098 1.3418H25.4047C27.3826 1.3418 29.0624 2.62722 29.6539 4.40769H2.13184Z" fill="#3730A3"/>
<path d="M21.3747 5.62402C21.8485 5.62402 22.2389 6.00996 22.1728 6.4793C21.9883 7.78859 21.3835 9.01176 20.4378 9.95761C19.2883 11.1069 17.7296 11.7525 16.1042 11.7525C14.4788 11.7525 12.9201 11.1069 11.7706 9.95761C10.825 9.01176 10.2201 7.78859 10.0357 6.4793C9.96952 6.00996 10.3599 5.62402 10.8337 5.62402C11.3075 5.62402 11.6834 6.01171 11.7749 6.47658C11.9429 7.32953 12.3604 8.12061 12.9841 8.74413C13.8117 9.57167 14.934 10.0365 16.1042 10.0365C17.2745 10.0365 18.3968 9.57167 19.2243 8.74413C19.848 8.12061 20.2656 7.32953 20.4335 6.47658C20.5253 6.01171 20.9009 5.62402 21.3747 5.62402Z" fill="#FACC15"/>
</svg>
