<svg width="32" height="24" viewBox="0 0 32 24" fill="none" xmlns="http://www.w3.org/2000/svg">
<path d="M16.0029 6.00098C19.3166 6.001 22.0029 8.68728 22.0029 12.001C22.0029 13.8876 22.4571 15.6662 23.2607 17.2354C23.3672 17.4435 23.3703 17.6895 23.2695 17.9004C23.1685 18.1115 22.9743 18.2639 22.7451 18.3115C21.6775 18.5332 20.5907 18.7036 19.4883 18.8193C19.3274 20.6031 17.8285 22.001 16.0029 22.001C14.1773 22.001 12.6785 20.6031 12.5176 18.8193C11.4152 18.7036 10.3284 18.5332 9.26072 18.3115C9.03155 18.2639 8.83736 18.1115 8.73631 17.9004C8.63553 17.6895 8.63864 17.4435 8.7451 17.2354C9.54871 15.6662 10.0029 13.8876 10.0029 12.001C10.0029 8.68727 12.6892 6.00098 16.0029 6.00098ZM17.9541 18.9443C17.3086 18.982 16.6577 19.001 16.0029 19.001C15.3481 19.001 14.6972 18.982 14.0517 18.9443C14.2535 19.8355 15.0507 20.501 16.0029 20.501C16.9551 20.501 17.7524 19.8355 17.9541 18.9443ZM9.06053 6.27246C9.32433 5.95312 9.79782 5.90807 10.1172 6.17188C10.4362 6.43564 10.4812 6.90829 10.2178 7.22754C9.46759 8.13566 8.9274 9.22286 8.67088 10.4141C8.58352 10.8188 8.18409 11.0764 7.77928 10.9893C7.37457 10.9019 7.11691 10.5025 7.20408 10.0977C7.51246 8.66572 8.16138 7.361 9.06053 6.27246ZM21.8887 6.17188C22.208 5.90809 22.6805 5.95318 22.9443 6.27246C23.8435 7.36102 24.4924 8.66567 24.8008 10.0977C24.888 10.5026 24.6305 10.9021 24.2256 10.9893C23.8209 11.0763 23.4223 10.8187 23.3349 10.4141C23.0784 9.22286 22.5382 8.13566 21.7881 7.22754C21.5244 6.90822 21.5694 6.43566 21.8887 6.17188Z" fill="#C7D2FE"/>
<path d="M24.0083 14.3979C27.5429 14.3979 30.4083 11.5325 30.4083 7.99792C30.4083 4.4633 27.5429 1.59792 24.0083 1.59792C20.4737 1.59792 17.6083 4.4633 17.6083 7.99792C17.6083 11.5325 20.4737 14.3979 24.0083 14.3979Z" fill="#1E1B4B"/>
<path d="M24.0077 1.6095C27.5421 1.60972 30.4071 4.4754 30.4071 8.0099C30.4069 11.5442 27.542 14.4091 24.0077 14.4093C20.4732 14.4093 17.6075 11.5443 17.6073 8.0099C17.6073 4.47527 20.4731 1.6095 24.0077 1.6095ZM23.9989 3.41224C23.6676 3.41227 23.3993 3.6805 23.3993 4.01185V8.01185C23.3994 8.34308 23.6676 8.61142 23.9989 8.61146H27.1991L27.3202 8.59974C27.5934 8.54368 27.7986 8.30156 27.7987 8.01185C27.7987 7.72202 27.5934 7.48004 27.3202 7.42396L27.1991 7.41224H24.5985V4.01185C24.5985 3.68048 24.3303 3.41224 23.9989 3.41224Z" fill="#EF4444"/>
</svg>
