<svg width="18" height="22" viewBox="0 0 18 22" fill="none" xmlns="http://www.w3.org/2000/svg">
<path fill-rule="evenodd" clip-rule="evenodd" d="M11.6152 0.596905C11.9165 0.764847 12.0643 1.11658 11.9736 1.44932L9.98195 8.75198H17.25C17.5487 8.75198 17.8189 8.92916 17.9379 9.20307C18.0569 9.47697 18.0021 9.79539 17.7983 10.0137L7.29831 21.2637C7.06298 21.5159 6.68604 21.575 6.38481 21.4071C6.08357 21.2391 5.9357 20.8874 6.02644 20.5546L8.01808 13.252H0.750016C0.451369 13.252 0.181182 13.0748 0.062156 12.8009C-0.0568695 12.527 -0.00204775 12.2086 0.201725 11.9902L10.7017 0.74024C10.937 0.488107 11.314 0.428962 11.6152 0.596905Z" fill="#EAB308"/>
</svg>
