<svg width="14" height="12" viewBox="0 0 14 12" fill="none" xmlns="http://www.w3.org/2000/svg">
<path d="M0 6.74067C0 7.72338 0.713436 8.56548 1.68911 8.68285C2.45355 8.7748 3.22402 8.84715 4 8.89939V11.25C4 11.5533 4.18273 11.8268 4.46299 11.9429C4.74324 12.059 5.06583 11.9948 5.28033 11.7803L7.7905 9.27016C7.97217 9.08849 8.21682 8.98422 8.47361 8.97576C9.76764 8.93316 11.0475 8.83467 12.311 8.68265C13.2866 8.56525 14 7.72316 14 6.74048V2.25947C14 1.27678 13.2866 0.43469 12.3109 0.317301C10.5698 0.107804 8.79728 0 6.99962 0C5.20224 0 3.43002 0.107772 1.68909 0.317206C0.713426 0.434579 0 1.27668 0 2.25938V6.74067Z" fill="#4F46E5"/>
</svg>
